<?xml version="1.0" encoding="utf-8"?>
<!-- Generator: Adobe Illustrator 18.1.0, SVG Export Plug-In . SVG Version: 6.00 Build 0)  -->
<svg version="1.1" id="Layer_1" xmlns="http://www.w3.org/2000/svg" xmlns:xlink="http://www.w3.org/1999/xlink" x="0px" y="0px"
	 viewBox="0 0 960 560" enable-background="new 0 0 960 560" xml:space="preserve">
<g>
	<path fill="#0000FF" d="M479.9,255.9c-13.2,0-24,10.8-24,24s10.8,24,24,24c13.3,0,24-10.7,24-24S493.2,255.9,479.9,255.9z
		 M479.9,300c-11.1,0-20.1-9-20.1-20.1s9-20.1,20.1-20.1c11.1,0,20.1,9,20.1,20.1S491,300,479.9,300z"/>
	<path fill="#0000FF" d="M494.8,275.3C494.8,275.2,494.8,275.2,494.8,275.3c0-0.1,0-0.1,0-0.1s0,0,0-0.1s0-0.1,0-0.1s0,0,0-0.1
		c0,0,0,0,0-0.1l0,0c0,0,0,0,0-0.1s0,0,0,0s0,0-0.1-0.1l0,0c0,0,0,0-0.1-0.1l0,0l0,0l-13.6-9c-0.4-0.3-1-0.3-1.4,0l-13.6,9l0,0l0,0
		c0,0,0,0-0.1,0.1s0,0,0,0s0,0-0.1,0.1l0,0c0,0,0,0,0,0.1l0,0c0,0,0,0,0,0.1c0,0,0,0,0,0.1v0.1c0,0,0,0,0,0.1s0,0.1,0,0.1l0,0
		c0,0,0,0.1,0,0.2v9c0,0,0,0.1,0,0.2l0,0v0.1c0,0,0,0,0,0.1s0,0.1,0,0.1s0,0,0,0.1c0,0,0,0,0,0.1l0,0c0,0,0,0,0,0.1l0,0
		c0,0,0,0,0.1,0.1l0,0c0,0,0,0,0.1,0.1l0,0l0,0l13.6,9c0.2,0.1,0.5,0.2,0.7,0.2s0.5-0.1,0.7-0.2l13.6-9l0,0l0,0c0,0,0,0,0.1-0.1
		s0,0,0,0s0,0,0.1-0.1l0,0c0,0,0,0,0-0.1l0,0c0,0,0,0,0-0.1c0,0,0,0,0-0.1v-0.1c0,0,0,0,0-0.1v-0.1l0,0c0,0,0-0.1,0-0.2v-9
		C494.8,275.3,494.8,275.3,494.8,275.3z M481.2,268.7l10,6.7l-4.5,3l-5.5-3.7V268.7z M478.7,268.7v5.9l-5.5,3.7l-4.5-3L478.7,268.7z
		 M467.6,277.8l3.2,2.1l-3.2,2.1V277.8z M478.7,291.1l-10-6.7l4.5-3l5.5,3.7V291.1z M479.9,283l-4.5-3l4.5-3l4.5,3L479.9,283z
		 M481.2,291.1v-5.9l5.5-3.7l4.5,3L481.2,291.1z M492.2,282.1L489,280l3.2-2.1V282.1z"/>
</g>
</svg>
