<?xml version="1.0" encoding="utf-8"?>
<!-- Generator: Adobe Illustrator 18.1.0, SVG Export Plug-In . SVG Version: 6.00 Build 0)  -->
<svg version="1.1" id="Layer_1" xmlns="http://www.w3.org/2000/svg" xmlns:xlink="http://www.w3.org/1999/xlink" x="0px" y="0px"
	 viewBox="0 0 960 560" enable-background="new 0 0 960 560" xml:space="preserve">
<g>
	<g>
		<path fill="#010101" d="M455,298.1c0-12.8,0-25.5,0-38.2c0-0.1,0.1-0.2,0.1-0.3c0.5-2.3,1.9-3.8,4.2-4.4c0.2-0.1,0.4-0.1,0.6-0.1
			c12.8,0,25.5,0,38.2,0c0.1,0,0.2,0.1,0.3,0.1c2.4,0.5,3.8,1.9,4.5,4.2c0.1,0.2,0.1,0.4,0.1,0.6c0,12.8,0,25.5,0,38.2
			c0,0.1-0.1,0.2-0.1,0.3c-0.4,2.2-2.1,4-4.3,4.4c-0.2,0-0.3,0.1-0.5,0.1c-12.8,0-25.5,0-38.2,0c-0.1,0-0.2-0.1-0.3-0.1
			c-2.3-0.4-4-2-4.5-4.2C455.1,298.5,455,298.3,455,298.1z M460.5,275.3c0,0.2,0,0.3,0,0.4c0,6.6,0,13.2,0,19.8c0,1.2,0.8,2,2,2
			c11,0,21.9,0,32.9,0c1.3,0,2.1-0.8,2.1-2.1c0-6.5,0-13,0-19.5c0-0.2,0-0.3,0-0.5c-1.4,0-2.8,0-4.2,0c1,4.6,0.3,8.8-2.5,12.5
			c-2.8,3.7-6.6,5.7-11.3,5.9c-3.9,0.2-7.4-1.1-10.3-3.7c-4.3-4-5.7-8.9-4.5-14.7C463.3,275.3,461.9,275.3,460.5,275.3z M488.2,279
			c0-5.1-4.1-9.2-9.2-9.3c-5.1,0-9.2,4.1-9.2,9.2c0,5.1,4.1,9.2,9.2,9.3C484.1,288.3,488.2,284.1,488.2,279z M492.9,260.5
			c-0.9,0-1.8,0-2.7,0c-1.2,0-2,0.7-2,1.9c0,1.8,0,3.6,0,5.4c0,1.1,0.8,1.9,1.9,1.9c1.8,0,3.6,0,5.4,0c1.2,0,1.9-0.8,1.9-2
			c0-1.8,0-3.5,0-5.3c0-1.2-0.8-2-2-2C494.6,260.5,493.7,260.5,492.9,260.5z"/>
		<path fill="#FFFFFF" d="M455,298.1c0,0.2,0.1,0.4,0.1,0.5c0.5,2.2,2.2,3.8,4.5,4.2c0.1,0,0.2,0.1,0.3,0.1c-1.6,0-3.2,0-4.9,0
			C455,301.4,455,299.7,455,298.1z"/>
		<path fill="#FFFFFF" d="M498.1,303c0.2,0,0.3-0.1,0.5-0.1c2.2-0.5,3.9-2.2,4.3-4.4c0-0.1,0.1-0.2,0.1-0.3c0,1.6,0,3.2,0,4.9
			C501.4,303,499.7,303,498.1,303z"/>
		<path fill="#FFFFFF" d="M459.9,255c-0.2,0-0.4,0.1-0.6,0.1c-2.3,0.6-3.7,2.1-4.2,4.4c0,0.1-0.1,0.2-0.1,0.3c0-1.6,0-3.2,0-4.9
			C456.6,255,458.2,255,459.9,255z"/>
		<path fill="#FFFFFF" d="M503,259.9c0-0.2-0.1-0.4-0.1-0.6c-0.6-2.3-2.1-3.7-4.5-4.2c-0.1,0-0.2-0.1-0.3-0.1c1.6,0,3.2,0,4.9,0
			C503,256.6,503,258.2,503,259.9z"/>
		<path fill="#FFFFFF" d="M460.5,275.3c1.4,0,2.7,0,4.1,0c-1.2,5.7,0.2,10.7,4.5,14.7c2.9,2.6,6.4,3.9,10.3,3.7
			c4.7-0.2,8.5-2.2,11.3-5.9c2.8-3.7,3.5-7.9,2.5-12.5c1.4,0,2.7,0,4.2,0c0,0.2,0,0.3,0,0.5c0,6.5,0,13,0,19.5
			c0,1.3-0.7,2.1-2.1,2.1c-11,0-21.9,0-32.9,0c-1.2,0-2-0.8-2-2c0-6.6,0-13.2,0-19.8C460.5,275.6,460.5,275.5,460.5,275.3z"/>
		<path fill="#FFFFFF" d="M488.2,279c0,5.1-4.2,9.2-9.3,9.2c-5.1,0-9.2-4.2-9.2-9.3c0-5.1,4.2-9.2,9.2-9.2
			C484.1,269.8,488.2,273.9,488.2,279z"/>
		<path fill="#FFFFFF" d="M492.9,260.5c0.9,0,1.7,0,2.6,0c1.2,0,2,0.8,2,2c0,1.8,0,3.5,0,5.3c0,1.2-0.7,2-1.9,2c-1.8,0-3.6,0-5.4,0
			c-1.1,0-1.9-0.8-1.9-1.9c0-1.8,0-3.6,0-5.4c0-1.2,0.8-1.9,2-1.9C491.1,260.5,492,260.5,492.9,260.5z"/>
	</g>
</g>
</svg>
