<?xml version="1.0" encoding="utf-8"?>
<!-- Generator: Adobe Illustrator 18.1.0, SVG Export Plug-In . SVG Version: 6.00 Build 0)  -->
<svg version="1.1" id="Layer_1" xmlns="http://www.w3.org/2000/svg" xmlns:xlink="http://www.w3.org/1999/xlink" x="0px" y="0px"
	 viewBox="0 0 960 560" enable-background="new 0 0 960 560" xml:space="preserve">
<g>
	<g>
		<path d="M497.1,257.7h-38c-1.8,0-3.3,1.4-3.3,3.2V299c0,1.8,1.5,3.2,3.3,3.2h38c1.8,0,3.3-1.5,3.3-3.2v-38.1
			C500.4,259.1,498.9,257.7,497.1,257.7z M469,295.7h-6.6v-21.3h6.6V295.7L469,295.7z M465.7,271.5c-2.1,0-3.8-1.7-3.8-3.8
			c0-2.1,1.7-3.8,3.8-3.8c2.1,0,3.8,1.7,3.8,3.8C469.6,269.8,467.9,271.5,465.7,271.5z M493.8,295.7h-6.6v-10.3c0-2.5,0-5.6-3.4-5.6
			c-3.4,0-4,2.7-4,5.4v10.5h-6.6v-21.3h6.3v2.9h0.1c0.9-1.7,3-3.4,6.3-3.4c6.7,0,7.9,4.4,7.9,10.1V295.7L493.8,295.7z"/>
	</g>
	<g>
		<path d="M502.8,294.9c0.2,0,0.3-0.2,0.3-0.3c0-0.2-0.2-0.3-0.4-0.3h-0.5v1.2h0.2v-0.6h0.2l0,0l0.3,0.5h0.2L502.8,294.9
			L502.8,294.9z M502.6,294.7h-0.2v-0.4h0.3c0.1,0,0.3,0,0.3,0.2C503,294.7,502.8,294.7,502.6,294.7z"/>
		<path d="M502.6,293.6c-0.6,0-1.2,0.5-1.2,1.2c0,0.6,0.5,1.2,1.2,1.2c0.6,0,1.2-0.5,1.2-1.2C503.9,294.1,503.3,293.6,502.6,293.6z
			 M502.6,295.8c-0.6,0-1-0.4-1-1c0-0.6,0.4-1,1-1c0.6,0,1,0.4,1,1C503.7,295.4,503.2,295.8,502.6,295.8z"/>
	</g>
</g>
</svg>
