<?xml version="1.0" encoding="utf-8"?>
<!-- Generator: Adobe Illustrator 18.1.0, SVG Export Plug-In . SVG Version: 6.00 Build 0)  -->
<svg version="1.1" id="Layer_1" xmlns="http://www.w3.org/2000/svg" xmlns:xlink="http://www.w3.org/1999/xlink" x="0px" y="0px"
	 viewBox="0 0 960 560" enable-background="new 0 0 960 560" xml:space="preserve">
<g>
	<path d="M329.5,105.5c-13.2,0-24,10.8-24,24s10.8,24,24,24c13.3,0,24-10.7,24-24S342.8,105.5,329.5,105.5z M329.5,149.6
		c-11.1,0-20.1-9-20.1-20.1s9-20.1,20.1-20.1c11.1,0,20.1,9,20.1,20.1S340.6,149.6,329.5,149.6z"/>
	<path d="M344.4,124.9C344.4,124.8,344.4,124.8,344.4,124.9c0-0.1,0-0.1,0-0.1s0,0,0-0.1s0-0.1,0-0.1s0,0,0-0.1c0,0,0,0,0-0.1l0,0
		c0,0,0,0,0-0.1s0,0,0,0s0,0-0.1-0.1l0,0c0,0,0,0-0.1-0.1l0,0l0,0l-13.6-9c-0.4-0.3-1-0.3-1.4,0l-13.6,9l0,0l0,0c0,0,0,0-0.1,0.1
		s0,0,0,0s0,0-0.1,0.1l0,0c0,0,0,0,0,0.1l0,0c0,0,0,0,0,0.1c0,0,0,0,0,0.1v0.1c0,0,0,0,0,0.1s0,0.1,0,0.1l0,0c0,0,0,0.1,0,0.2v9
		c0,0,0,0.1,0,0.2l0,0v0.1c0,0,0,0,0,0.1s0,0.1,0,0.1s0,0,0,0.1c0,0,0,0,0,0.1l0,0c0,0,0,0,0,0.1l0,0c0,0,0,0,0.1,0.1l0,0
		c0,0,0,0,0.1,0.1l0,0l0,0l13.6,9c0.2,0.1,0.5,0.2,0.7,0.2s0.5-0.1,0.7-0.2l13.6-9l0,0l0,0c0,0,0,0,0.1-0.1s0,0,0,0s0,0,0.1-0.1l0,0
		c0,0,0,0,0-0.1l0,0c0,0,0,0,0-0.1c0,0,0,0,0-0.1v-0.1c0,0,0,0,0-0.1v-0.1l0,0c0,0,0-0.1,0-0.2v-9
		C344.4,124.9,344.4,124.9,344.4,124.9z M330.8,118.3l10,6.7l-4.5,3l-5.5-3.7V118.3z M328.3,118.3v5.9l-5.5,3.7l-4.5-3L328.3,118.3z
		 M317.2,127.4l3.2,2.1l-3.2,2.1V127.4z M328.3,140.7l-10-6.7l4.5-3l5.5,3.7V140.7z M329.5,132.6l-4.5-3l4.5-3l4.5,3L329.5,132.6z
		 M330.8,140.7v-5.9l5.5-3.7l4.5,3L330.8,140.7z M341.8,131.7l-3.2-2.1l3.2-2.1V131.7z"/>
</g>
</svg>
