<?xml version="1.0" encoding="utf-8"?>
<!-- Generator: Adobe Illustrator 18.1.0, SVG Export Plug-In . SVG Version: 6.00 Build 0)  -->
<svg version="1.1" id="Layer_1" xmlns="http://www.w3.org/2000/svg" xmlns:xlink="http://www.w3.org/1999/xlink" x="0px" y="0px"
	 viewBox="0 0 960 560" enable-background="new 0 0 960 560" xml:space="preserve">
<path fill="#191717" d="M365.5,101.3c-13.5,0-24.3,10.9-24.3,24.3c0,10.8,7,19.9,16.6,23.1c1.2,0.2,1.6-0.5,1.6-1.2
	c0-0.6,0-2.1,0-4.2c-6.8,1.5-8.2-3.2-8.2-3.2c-1.1-2.8-2.7-3.6-2.7-3.6c-2.2-1.5,0.2-1.5,0.2-1.5c2.4,0.2,3.8,2.5,3.8,2.5
	c2.1,3.8,5.7,2.6,7.1,2c0.2-1.6,0.8-2.6,1.5-3.2c-5.4-0.6-11.1-2.7-11.1-12.1c0-2.6,0.9-4.9,2.5-6.5c-0.2-0.6-1.1-3,0.2-6.5
	c0,0,2-0.6,6.7,2.5c1.9-0.5,4.1-0.8,6.1-0.8c2,0,4.2,0.3,6.1,0.8c4.7-3.1,6.7-2.5,6.7-2.5c1.3,3.3,0.5,5.8,0.2,6.5
	c1.5,1.7,2.5,3.9,2.5,6.5c0,9.3-5.7,11.4-11.2,12c0.9,0.7,1.6,2.2,1.6,4.5c0,3.2,0,5.9,0,6.7c0,0.6,0.4,1.4,1.7,1.2
	c9.6-3.2,16.6-12.4,16.6-23.1C389.8,112.3,379,101.3,365.5,101.3z"/>
</svg>
