<?xml version="1.0" encoding="utf-8"?>
<!-- Generator: Adobe Illustrator 18.1.0, SVG Export Plug-In . SVG Version: 6.00 Build 0)  -->
<svg version="1.1" id="Layer_1" xmlns="http://www.w3.org/2000/svg" xmlns:xlink="http://www.w3.org/1999/xlink" x="0px" y="0px"
	 viewBox="0 0 960 560" enable-background="new 0 0 960 560" xml:space="preserve">
<g>
	<g>
		<path fill="#0000FF" d="M346.1,117.6h-37.9c-1.8,0-3.3,1.4-3.3,3.2v38c0,1.8,1.5,3.2,3.3,3.2h37.9c1.8,0,3.3-1.4,3.3-3.2v-38
			C349.4,119.1,348,117.6,346.1,117.6z M318.2,155.5h-6.6v-21.3h6.6V155.5z M314.9,131.4c-2.1,0-3.8-1.7-3.8-3.8
			c0-2.1,1.7-3.8,3.8-3.8s3.8,1.7,3.8,3.8C318.7,129.7,317,131.4,314.9,131.4z M342.9,155.5h-6.6v-10.4c0-2.5,0-5.6-3.4-5.6
			s-4,2.7-4,5.5v10.5h-6.6v-21.3h6.3v2.9h0.1c0.9-1.7,3-3.4,6.3-3.4c6.7,0,7.9,4.4,7.9,10.1V155.5z"/>
	</g>
	<g>
		<path fill="#0000FF" d="M351.9,154.6c0.2,0,0.3-0.1,0.3-0.3s-0.1-0.4-0.4-0.4h-0.5v1.3h0.2v-0.5h0.2l0,0l0.3,0.5h0.2L351.9,154.6
			L351.9,154.6z M351.7,154.5h-0.2v-0.4h0.3c0.1,0,0.3,0,0.3,0.2C352,154.5,351.9,154.5,351.7,154.5z"/>
		<path fill="#0000FF" d="M351.7,153.4c-0.7,0-1.2,0.5-1.2,1.2c0,0.7,0.5,1.2,1.2,1.2s1.2-0.5,1.2-1.2
			C352.9,153.9,352.4,153.4,351.7,153.4z M351.7,155.6c-0.6,0-1-0.4-1-1s0.4-1,1-1s1,0.4,1,1S352.3,155.6,351.7,155.6z"/>
	</g>
</g>
</svg>
